<?xml version="1.0" encoding="iso-8859-1"?>
<!-- Generator: Adobe Illustrator 16.0.0, SVG Export Plug-In . SVG Version: 6.00 Build 0)  -->
<!DOCTYPE svg PUBLIC "-//W3C//DTD SVG 1.1//EN" "http://www.w3.org/Graphics/SVG/1.1/DTD/svg11.dtd">
<svg version="1.1" id="Capa_1" xmlns="http://www.w3.org/2000/svg" xmlns:xlink="http://www.w3.org/1999/xlink" x="0px" y="0px"
	 width="61.012px" height="61.012px" viewBox="0 0 61.012 61.012" style="enable-background:new 0 0 61.012 61.012;"
	 xml:space="preserve">
<g>
	<g>
		<path d="M53.455,18.504c-1.104,7.352-11.397,8.823-11.397,6.434c0-2.39,0.735-16.177-3.125-17.279
			c-3.86-1.103-2.39-6.801-4.412-7.352c-1.523-0.416-3.252-0.315-4.014-0.239c-0.762-0.075-2.492-0.177-4.015,0.239
			c-2.022,0.551-0.551,6.25-4.412,7.352c-3.86,1.104-3.125,14.889-3.125,17.279c0,2.389-10.293,0.918-11.396-6.434
			C6.455,11.152-2.736,28.981,6.272,36.15c8.16,6.495,21.75,6.502,24.234,6.446c2.484,0.056,16.074,0.049,24.233-6.446
			C63.748,28.982,54.557,11.152,53.455,18.504z M22.448,22.595c-0.761,0-1.378-0.618-1.378-1.378c0-0.762,0.618-1.378,1.378-1.378
			c0.762,0,1.378,0.618,1.378,1.378S23.209,22.595,22.448,22.595z M27.411,23.697c-0.761,0-1.378-0.618-1.378-1.378
			c0-0.761,0.618-1.378,1.378-1.378c0.761,0,1.378,0.618,1.378,1.378C28.79,23.08,28.172,23.697,27.411,23.697z M34.028,23.697
			c-0.762,0-1.378-0.618-1.378-1.378c0-0.761,0.617-1.378,1.378-1.378c0.762,0,1.378,0.618,1.378,1.378
			C35.406,23.08,34.79,23.697,34.028,23.697z M38.99,22.595c-0.761,0-1.377-0.618-1.377-1.378c0-0.762,0.617-1.378,1.377-1.378
			c0.761,0,1.379,0.618,1.379,1.378C40.37,21.977,39.751,22.595,38.99,22.595z"/>
		<path d="M46.817,49.363c-0.252-10.337-2.187-3.361-2.102,4.073c-0.115-10.244-2.071,4.106-3.37,3.566
			c-0.081-0.034-0.154-0.069-0.238-0.105c-0.006-0.003-0.012-0.006-0.012-0.006l0,0c-0.732-0.315-1.643-0.544-2.665-0.721
			c0.012-0.114,0.035-0.226,0.035-0.344v-3.14c0-1.165-0.951-5.729-3.646-5.729h-8.625c-2.695,0-3.646,4.563-3.646,5.729v3.14
			c0,0.104,0.021,0.2,0.03,0.301c-1.127,0.182-2.12,0.424-2.911,0.764l0,0c0,0-0.007,0.003-0.013,0.006
			c-0.084,0.036-0.157,0.071-0.238,0.105c-1.298,0.54-3.255-13.811-3.371-3.566c0.084-7.435-1.849-14.41-2.101-4.073
			c0.154-6.337-1.485,11.007,6.322,10.821l-0.005-0.018c2.333,0.083,5.925,0.807,9.979,0.84v0.006c0.048,0,0.092-0.003,0.14-0.003
			c0.048,0,0.093,0.003,0.141,0.003v-0.006c4.053-0.033,7.646-0.757,9.978-0.84l-0.005,0.018
			C48.301,60.37,46.662,43.026,46.817,49.363z M25.673,52.688c0-0.674,0.477-2.097,0.847-2.604h7.973
			c0.369,0.507,0.847,1.93,0.847,2.604v3.133c-1.486-0.099-3.11-0.135-4.819-0.14v-0.002c-0.048,0-0.093,0.001-0.141,0.001
			c-0.048,0-0.092-0.001-0.14-0.001v0.002c-1.61,0.003-3.152,0.033-4.568,0.12v-3.113H25.673z"/>
	</g>
</g>
<g>
</g>
<g>
</g>
<g>
</g>
<g>
</g>
<g>
</g>
<g>
</g>
<g>
</g>
<g>
</g>
<g>
</g>
<g>
</g>
<g>
</g>
<g>
</g>
<g>
</g>
<g>
</g>
<g>
</g>
</svg>
